<?xml version="1.0" standalone="no"?>
<!DOCTYPE svg PUBLIC "-//W3C//DTD SVG 20010904//EN"
 "http://www.w3.org/TR/2001/REC-SVG-20010904/DTD/svg10.dtd">
<svg version="1.0" xmlns="http://www.w3.org/2000/svg"
 width="100.000000pt" height="100.000000pt" viewBox="0 0 100.000000 100.000000"
 preserveAspectRatio="xMidYMid meet">

<g transform="translate(0.000000,100.000000) scale(0.100000,-0.100000)"
fill="#000000" stroke="none">
<path d="M237 552 c-125 -239 -226 -436 -224 -438 2 -2 106 133 231 300 l227
305 -3 134 -3 134 -228 -435z"/>
<path d="M481 847 l-1 -137 106 -263 c58 -144 111 -273 118 -287 11 -24 10
-26 -9 -28 -38 -3 -619 -112 -624 -117 -2 -3 199 -5 447 -5 248 0 453 3 456 8
2 4 -88 185 -201 402 -112 217 -224 433 -248 480 l-44 85 0 -138z m279 -727
c8 -5 11 -10 5 -10 -5 0 -17 5 -25 10 -8 5 -10 10 -5 10 6 0 17 -5 25 -10z"/>
<path d="M285 424 c-8 -20 -15 -38 -15 -40 0 -2 26 -4 58 -4 44 0 63 -5 75
-18 19 -21 24 -66 12 -102 -7 -22 -6 -23 8 -11 9 7 24 37 33 66 16 51 16 54
-3 86 -24 42 -55 59 -110 59 -40 0 -44 -3 -58 -36z"/>
<path d="M512 443 c-5 -10 -20 -49 -32 -88 -40 -122 -42 -125 -105 -125 l-55
0 0 55 c0 52 -1 55 -25 55 -25 0 -25 0 -25 -95 l0 -94 195 0 c107 0 195 2 195
6 0 10 -89 263 -100 283 -13 25 -36 26 -48 3z m46 -153 l21 -60 -37 0 c-32 0
-40 -5 -56 -35 -11 -19 -23 -35 -27 -35 -4 0 3 19 15 43 13 23 32 66 42 95 10
28 19 52 20 52 1 0 11 -27 22 -60z"/>
</g>
</svg>
