<?xml version="1.0" standalone="no"?>
<!DOCTYPE svg PUBLIC "-//W3C//DTD SVG 20010904//EN"
 "http://www.w3.org/TR/2001/REC-SVG-20010904/DTD/svg10.dtd">
<svg version="1.0" xmlns="http://www.w3.org/2000/svg"
 width="1280.000000pt" height="475.000000pt" viewBox="0 0 1280.000000 475.000000"
 preserveAspectRatio="xMidYMid meet">

<g transform="translate(0.000000,475.000000) scale(0.100000,-0.100000)"
fill="#000000" stroke="none">
<path d="M1839 4550 c-20 -41 -132 -268 -249 -505 -242 -490 -441 -894 -575
-1170 -51 -104 -206 -419 -344 -699 -138 -280 -251 -510 -251 -512 0 -2 -74
-152 -165 -335 -132 -266 -163 -334 -154 -346 10 -11 15 -12 25 -1 7 7 164
229 348 493 184 264 446 639 583 834 136 195 273 391 304 435 30 45 160 231
287 413 l232 333 -2 567 -3 568 -36 -75z"/>
<path d="M1900 4055 l0 -558 59 -156 c33 -86 108 -282 166 -436 58 -154 144
-379 190 -500 360 -947 477 -1256 488 -1287 4 -10 107 -66 254 -138 136 -66
372 -181 523 -254 151 -74 276 -133 278 -131 1 1 -49 107 -111 236 -324 666
-456 937 -571 1173 -69 142 -126 260 -126 261 0 1 -68 141 -151 311 -83 170
-182 372 -219 449 -37 77 -140 291 -230 475 -89 184 -246 506 -347 715 -101
209 -189 384 -194 390 -5 5 -9 -206 -9 -550z"/>
<path d="M4330 4231 c0 -6 15 -11 34 -11 19 0 43 -8 55 -17 22 -18 22 -19 19
-401 -3 -366 -4 -384 -22 -398 -11 -8 -30 -14 -44 -14 -13 0 -20 -4 -17 -10 4
-6 26 -8 55 -4 27 4 123 1 212 -6 142 -10 175 -10 256 4 118 21 192 56 263
126 187 185 167 511 -39 657 -95 68 -142 76 -474 81 -211 3 -298 1 -298 -7z
m478 -56 c219 -52 329 -224 301 -471 -11 -103 -46 -173 -107 -217 -113 -82
-321 -99 -389 -31 l-23 23 0 350 c0 397 -10 358 95 360 33 0 88 -6 123 -14z"/>
<path d="M9247 4123 c-4 -3 -7 -75 -7 -158 0 -84 -3 -241 -7 -349 -7 -216 -10
-226 -65 -226 -17 0 -28 -3 -24 -7 10 -10 276 -11 276 -1 0 4 -11 8 -24 8 -13
0 -34 8 -47 19 -21 17 -23 28 -30 177 -4 88 -8 194 -8 237 l-1 79 268 -262
c256 -252 303 -292 320 -276 4 4 10 163 13 352 7 364 8 374 55 374 12 0 26 5
29 10 4 6 -42 10 -129 10 -78 0 -136 -4 -136 -9 0 -6 17 -11 37 -13 29 -2 41
-9 49 -28 7 -15 14 -119 18 -259 l5 -234 -176 174 c-97 96 -225 222 -283 282
-102 103 -119 115 -133 100z"/>
<path d="M10106 4122 c-10 -17 -28 -133 -21 -140 4 -4 10 -1 12 5 3 7 13 23
23 35 17 21 28 23 134 26 l116 4 -1 -264 c-1 -368 -6 -397 -68 -398 -13 0 -21
-3 -18 -7 9 -8 317 -11 322 -2 3 3 -14 9 -36 12 -22 3 -43 8 -46 11 -15 15
-22 124 -22 374 l-1 274 104 -4 c85 -2 108 -6 125 -22 12 -11 21 -27 21 -38 0
-10 5 -18 10 -18 6 0 10 31 10 73 l0 72 -295 -3 c-170 -2 -309 1 -330 7 -19 5
-37 6 -39 3z"/>
<path d="M11601 4112 c-6 -11 -69 -155 -140 -321 -159 -366 -165 -379 -197
-391 -39 -15 -117 -12 -142 6 -22 15 -22 16 -22 338 0 340 1 346 46 346 13 0
26 5 29 10 4 7 -48 10 -150 10 -102 0 -154 -3 -150 -10 3 -5 17 -10 30 -10 54
0 55 -6 55 -335 0 -175 -4 -315 -10 -330 -6 -17 -20 -27 -40 -31 -16 -4 -30
-9 -30 -13 0 -3 131 -6 290 -6 160 0 290 3 290 7 0 4 -12 8 -27 10 -41 5 -41
46 -1 143 l34 80 128 0 128 0 40 -100 c29 -74 37 -104 29 -116 -8 -14 -1 -17
57 -23 93 -8 174 -7 190 3 9 5 0 10 -27 15 -55 9 -69 31 -191 316 -171 396
-182 420 -196 420 -7 0 -18 -8 -23 -18z m43 -304 c26 -64 46 -121 46 -127 0
-7 -35 -11 -100 -11 -55 0 -100 2 -100 5 0 15 102 257 106 252 2 -1 23 -55 48
-119z"/>
<path d="M6072 4113 c-162 -2 -251 -7 -247 -13 3 -6 19 -10 35 -10 60 0 60 -1
60 -338 0 -336 -3 -352 -55 -363 -17 -4 -28 -7 -25 -8 17 -7 322 -6 326 1 3 4
-10 8 -28 8 -69 0 -73 9 -76 189 l-3 161 88 0 c99 0 133 -14 133 -56 0 -28 16
-33 22 -6 3 9 6 45 7 79 l2 63 -35 -15 c-22 -10 -69 -15 -126 -15 l-90 0 0
135 0 134 103 -6 c56 -3 110 -10 119 -14 9 -5 19 -22 23 -39 10 -45 25 -36 25
14 0 24 3 58 6 75 4 17 3 30 -2 29 -5 -2 -123 -4 -262 -5z"/>
<path d="M6702 4113 c-162 -2 -251 -7 -247 -13 3 -6 21 -10 39 -10 17 0 37 -5
44 -12 9 -9 12 -96 12 -328 0 -346 -2 -360 -57 -360 -15 0 -23 -3 -20 -7 10
-9 317 -10 323 -1 3 4 -5 8 -18 8 -77 1 -88 26 -88 218 l0 132 88 0 c94 0 132
-14 132 -50 0 -33 19 -32 24 2 10 66 13 128 7 128 -4 0 -13 -6 -19 -12 -8 -8
-53 -14 -123 -16 l-110 -4 3 133 3 134 100 -4 c115 -4 133 -11 142 -52 7 -37
23 -38 23 0 0 15 3 49 6 75 4 25 3 45 -2 44 -5 -2 -123 -4 -262 -5z"/>
<path d="M7322 4113 c-156 -2 -241 -7 -237 -13 3 -6 21 -10 39 -10 19 0 39 -6
45 -14 17 -20 25 -285 16 -489 -8 -181 -13 -197 -62 -197 -15 0 -24 -2 -21 -5
3 -3 114 -8 246 -11 275 -5 255 -12 267 89 8 64 -6 79 -25 23 -14 -44 -44 -56
-141 -56 -72 0 -82 3 -104 25 -24 23 -25 29 -25 155 l0 130 85 0 c101 0 131
-12 141 -54 l7 -31 8 30 c4 17 9 54 13 83 5 48 3 53 -12 47 -40 -17 -104 -26
-168 -23 l-69 3 -3 134 -3 134 98 -7 c113 -9 132 -16 140 -57 9 -44 20 -35 27
24 9 77 8 97 -6 95 -7 -2 -122 -4 -256 -5z"/>
<path d="M8758 4113 c-147 -2 -238 -7 -238 -13 0 -6 15 -10 34 -10 64 0 66 -9
66 -320 -1 -280 -7 -356 -31 -371 -25 -16 -92 -9 -137 12 -42 21 -144 128
-244 257 l-41 53 35 29 c49 40 95 113 103 161 6 32 2 51 -20 96 -23 46 -35 59
-74 77 -42 19 -66 21 -263 24 -150 2 -218 0 -218 -7 0 -6 15 -11 34 -11 58 0
61 -10 64 -249 5 -264 -4 -416 -25 -436 -8 -8 -26 -15 -40 -15 -15 0 -23 -3
-20 -7 10 -9 307 -11 313 -1 3 4 -8 8 -24 8 -17 0 -39 8 -51 18 -20 16 -22 27
-24 142 l-2 125 50 3 c28 1 55 -1 60 -5 6 -5 40 -48 75 -98 36 -49 80 -107 99
-128 64 -72 57 -70 438 -73 249 -1 345 1 352 10 14 16 26 136 14 136 -6 0 -14
-15 -19 -32 -13 -45 -45 -58 -140 -58 -125 0 -128 4 -132 174 l-4 136 85 0
c107 0 135 -10 143 -50 4 -16 10 -30 14 -30 6 0 22 151 17 157 -2 1 -22 -5
-46 -13 -28 -10 -72 -14 -125 -12 l-81 3 0 130 0 130 99 -3 c109 -3 136 -15
136 -59 0 -42 19 -24 25 25 3 26 8 59 10 75 4 21 1 27 -13 25 -9 -2 -124 -4
-254 -5z m-662 -69 c72 -34 105 -150 66 -236 -27 -63 -58 -81 -132 -80 -33 0
-65 4 -70 7 -11 7 -14 307 -3 318 12 13 105 7 139 -9z"/>
<path d="M5375 4100 c3 -5 16 -10 29 -10 45 0 46 -6 46 -346 0 -352 0 -354
-57 -354 -15 0 -23 -3 -20 -7 10 -9 317 -10 323 -1 3 4 -10 8 -28 8 -19 0 -43
6 -54 14 -18 14 -19 31 -22 323 -2 195 1 319 7 336 8 21 17 27 40 27 16 0 33
5 36 10 4 7 -48 10 -150 10 -102 0 -154 -3 -150 -10z"/>
<path d="M4563 2958 c-5 -7 -67 -155 -137 -328 -69 -173 -135 -324 -146 -335
-11 -11 -35 -25 -53 -32 -27 -10 -14 -12 93 -12 111 0 121 2 90 12 -30 11 -35
16 -33 42 2 17 16 64 32 105 l28 75 113 0 113 0 39 -100 c30 -77 37 -104 28
-117 -9 -17 -2 -18 112 -17 122 1 123 1 81 15 -52 19 -65 39 -138 219 -32 77
-84 205 -117 285 -33 80 -64 157 -70 173 -11 30 -20 34 -35 15z m-3 -191 c0
-2 18 -52 40 -113 22 -60 40 -112 40 -116 0 -5 -38 -8 -84 -8 -47 0 -87 3 -89
8 -6 9 76 232 86 232 4 0 7 -1 7 -3z"/>
<path d="M7136 2852 c-3 -9 -23 -134 -46 -277 -22 -143 -43 -268 -46 -278 -3
-10 -20 -25 -37 -32 -30 -13 -24 -14 73 -14 86 1 99 3 73 11 -17 6 -34 16 -36
23 -5 12 30 306 40 335 3 8 37 -50 79 -135 90 -179 122 -235 134 -235 6 0 55
89 109 198 58 115 101 191 105 182 11 -32 47 -342 41 -361 -6 -18 0 -19 187
-18 142 0 186 3 166 11 -19 6 -28 17 -28 31 0 11 12 52 28 89 l27 68 104 -2
105 -3 32 -80 c18 -44 31 -88 28 -97 -5 -16 4 -18 98 -17 97 1 101 1 71 14
-17 8 -40 27 -50 42 -11 15 -66 136 -123 268 -131 306 -128 301 -145 284 -12
-13 -54 -106 -202 -449 -25 -58 -50 -111 -56 -119 -29 -35 -99 -35 -118 0 -10
19 -41 200 -74 434 -10 66 -23 126 -30 134 -11 11 -33 -25 -132 -223 l-118
-236 -115 230 c-63 126 -120 232 -127 234 -6 3 -14 -3 -17 -12z m1014 -244
c19 -51 37 -96 38 -100 2 -4 -33 -8 -78 -8 -62 0 -81 3 -77 13 50 135 71 187
76 187 3 0 22 -42 41 -92z"/>
<path d="M10217 2864 c-2 -5 -8 -136 -12 -290 -4 -155 -10 -286 -14 -291 -3
-6 -19 -15 -36 -21 -24 -8 -7 -10 90 -10 97 0 113 2 83 10 -50 13 -56 35 -61
245 l-4 172 211 -206 c221 -215 249 -239 266 -228 6 4 10 74 11 188 1 100 4
229 8 287 6 102 7 105 31 108 14 2 29 8 34 13 6 5 -36 9 -108 9 -75 0 -115 -4
-111 -10 3 -5 19 -10 35 -10 16 0 32 -6 37 -12 7 -12 22 -398 15 -408 -1 -2
-108 101 -236 229 -128 128 -236 229 -239 225z"/>
<path d="M5645 2849 c-2 -3 -7 -30 -11 -60 l-7 -54 30 33 c30 31 33 32 117 32
l86 0 0 -242 c0 -134 -3 -253 -6 -266 -4 -14 -18 -25 -38 -31 -22 -7 9 -9 109
-9 124 0 135 1 100 11 -28 9 -41 19 -46 37 -4 14 -7 132 -8 263 l-1 237 78 0
c80 0 122 -16 122 -45 0 -8 5 -17 10 -20 6 -4 10 17 10 57 l0 63 -271 0 c-149
0 -272 -3 -274 -6z"/>
<path d="M6495 2853 c-101 -22 -186 -89 -227 -178 -32 -70 -31 -180 1 -252 27
-61 93 -126 159 -156 39 -18 66 -22 152 -22 94 0 111 3 160 27 65 32 111 75
148 136 32 55 43 184 21 260 -20 73 -97 144 -184 171 -63 20 -174 27 -230 14z
m161 -54 c94 -45 144 -139 144 -268 0 -124 -37 -198 -118 -233 -112 -50 -253
22 -297 151 -35 103 -24 232 25 301 47 66 164 89 246 49z"/>
<path d="M8396 2826 c-3 -16 -6 -42 -6 -59 l0 -31 17 24 c26 38 31 40 126 40
l87 0 0 -222 c0 -276 -3 -296 -44 -314 -28 -12 -17 -13 109 -13 111 1 133 3
105 11 -62 18 -60 8 -60 284 l0 254 78 0 c84 0 122 -16 122 -51 0 -10 5 -19
10 -19 6 0 10 27 10 63 l0 62 -274 0 -275 0 -5 -29z"/>
<path d="M9591 2839 c-94 -30 -162 -101 -191 -198 -17 -55 -21 -85 -16 -124
15 -109 85 -205 185 -250 37 -17 66 -21 151 -22 93 0 111 3 161 26 71 34 125
87 158 158 21 46 25 71 25 136 0 93 -15 134 -71 195 -57 64 -127 92 -243 96
-76 3 -107 0 -159 -17z m197 -35 c47 -19 98 -68 125 -119 25 -48 35 -197 18
-262 -15 -54 -55 -101 -106 -124 -49 -23 -77 -23 -143 -4 -70 21 -113 61 -147
137 -24 53 -29 77 -29 145 0 71 4 89 30 139 22 45 39 63 73 81 52 27 124 30
179 7z"/>
<path d="M4925 2840 c3 -5 17 -10 29 -10 13 0 28 -6 34 -12 6 -8 12 -94 14
-208 3 -188 4 -197 30 -250 34 -68 87 -106 165 -116 153 -19 270 36 304 144 6
20 14 127 18 237 l6 200 25 3 c14 2 29 8 34 13 6 5 -36 9 -108 9 -75 0 -115
-4 -111 -10 3 -5 16 -10 29 -10 43 0 46 -14 46 -210 -1 -214 -7 -255 -49 -292
-90 -81 -246 -38 -266 74 -3 18 -5 121 -3 228 l3 195 28 3 c15 2 27 8 27 13 0
5 -56 9 -131 9 -84 0 -128 -4 -124 -10z"/>
<path d="M9035 2840 c3 -5 14 -10 24 -10 39 0 41 -15 41 -279 0 -141 -4 -261
-8 -267 -4 -6 -20 -16 -37 -22 -24 -8 -1 -10 110 -10 113 0 133 2 102 10 -26
7 -41 18 -48 35 -13 34 -12 489 1 514 6 11 21 19 35 19 14 0 25 5 25 10 0 6
-49 10 -126 10 -81 0 -123 -4 -119 -10z"/>
<path d="M2076 2397 c-35 -38 -52 -82 -200 -519 -67 -200 -113 -320 -130 -343
-50 -65 -69 -70 -271 -70 l-180 0 -3 233 -2 233 -98 -3 -97 -3 -3 -392 -2
-393 297 0 c291 0 299 1 348 23 64 30 141 114 181 198 17 35 71 183 119 329
48 146 91 269 96 274 4 5 12 -9 18 -30 6 -22 42 -134 80 -251 37 -117 66 -215
63 -218 -3 -3 -72 -5 -153 -5 l-147 0 -21 -63 c-28 -82 -95 -183 -149 -224
l-44 -33 426 0 c272 0 426 4 426 10 0 5 -6 27 -14 47 -8 21 -96 286 -195 588
-111 336 -191 565 -207 588 -44 65 -92 73 -138 24z"/>
<path d="M1184 2323 c-17 -48 -45 -125 -62 -170 l-31 -83 239 0 239 0 36 -32
c20 -17 48 -54 63 -82 25 -48 27 -59 27 -187 0 -133 -1 -137 -31 -197 l-32
-61 27 10 c36 14 69 47 92 92 29 56 129 356 129 387 0 78 -85 253 -157 322
-73 71 -114 82 -323 86 l-185 3 -31 -88z"/>
<path d="M5720 1187 c-26 -6 -37 -12 -27 -14 20 -5 21 -30 4 -87 -12 -39 -13
-40 -64 -40 -43 -1 -57 -6 -84 -31 -37 -35 -89 -138 -89 -177 0 -37 19 -76 41
-83 24 -8 58 10 92 49 l29 31 -6 -27 c-6 -26 13 -58 35 -58 21 0 67 30 83 54
19 30 11 34 -16 9 -10 -9 -21 -14 -24 -11 -6 7 -4 14 60 224 25 84 46 157 46
163 0 13 -19 13 -80 -2z m-59 -173 c15 -43 -60 -204 -95 -204 -45 0 -12 143
47 208 24 26 37 25 48 -4z"/>
<path d="M7602 1188 c-40 -9 -42 -11 -26 -23 18 -12 18 -15 1 -68 l-17 -55
-44 5 c-39 5 -47 2 -85 -33 -53 -47 -81 -101 -88 -169 -5 -44 -2 -56 16 -74
30 -30 45 -27 95 19 40 37 43 38 38 15 -5 -29 13 -55 39 -55 20 0 89 56 89 73
0 5 -9 2 -20 -8 -11 -10 -23 -15 -27 -12 -3 4 20 91 51 194 31 104 56 191 56
196 0 9 -23 8 -78 -5z m-64 -193 c6 -70 -74 -201 -109 -179 -16 10 -3 78 28
147 39 86 75 100 81 32z"/>
<path d="M9565 1188 c-33 -18 -66 -51 -92 -91 -13 -21 -35 -43 -48 -49 -27
-12 -34 -38 -10 -38 8 0 15 -6 15 -13 0 -25 -90 -330 -101 -344 -16 -19 -29
-16 -29 7 0 15 -7 20 -25 20 -30 0 -43 -24 -24 -46 16 -20 77 -14 115 11 44
29 80 106 134 293 16 56 25 72 39 72 10 0 21 7 25 15 4 10 -1 15 -15 15 -16 0
-18 5 -13 28 11 45 43 101 64 112 18 10 20 8 20 -20 0 -38 27 -52 46 -25 18
24 17 30 -2 49 -18 18 -70 20 -99 4z"/>
<path d="M10862 1188 c-38 -8 -41 -11 -27 -22 15 -11 12 -29 -39 -204 -31
-105 -56 -194 -56 -197 0 -3 17 -5 39 -5 38 0 38 0 55 59 14 49 29 71 51 71 1
0 6 -17 9 -37 18 -100 53 -120 107 -62 32 35 40 62 10 35 -18 -17 -20 -17 -29
1 -5 10 -15 45 -22 78 l-12 59 28 24 c16 13 43 30 59 37 29 14 28 14 -35 13
-36 0 -57 -2 -47 -5 30 -8 19 -29 -40 -79 -31 -27 -54 -42 -51 -33 3 9 20 67
37 130 18 63 34 122 37 132 6 19 -6 20 -74 5z"/>
<path d="M11172 1188 c-28 -28 -7 -78 33 -78 42 0 59 44 29 74 -18 19 -45 21
-62 4z"/>
<path d="M2525 1034 c-143 -29 -559 -112 -925 -184 -366 -72 -818 -162 -1005
-200 l-340 -68 1795 -1 1795 -1 -245 119 c-135 65 -330 160 -435 211 -216 105
-376 181 -378 179 -1 -1 -119 -25 -262 -55z"/>
<path d="M4402 1030 c-60 -37 -123 -166 -108 -224 17 -69 64 -72 123 -9 37 39
42 42 33 19 -12 -33 2 -66 28 -66 24 0 79 35 92 59 6 12 7 21 1 21 -5 0 -11
-7 -15 -15 -5 -13 -36 -22 -36 -11 0 3 16 57 35 120 19 64 35 118 35 121 0 10
-35 5 -62 -9 -23 -12 -27 -12 -32 0 -8 20 -56 17 -94 -6z m88 -40 c0 -62 -62
-180 -96 -180 -36 0 -1 155 47 206 27 29 49 17 49 -26z"/>
<path d="M4693 1043 c-29 -4 -48 -23 -23 -23 17 0 11 -34 -24 -149 l-33 -111
42 0 42 0 16 59 c23 80 122 203 141 173 2 -4 -9 -48 -25 -97 -16 -50 -27 -100
-24 -112 11 -46 96 -18 126 40 11 21 10 21 -15 -2 -14 -14 -28 -22 -30 -20 -3
2 9 51 27 107 35 116 32 135 -23 140 -29 3 -40 -4 -86 -53 -58 -61 -62 -61
-39 5 8 23 15 44 15 46 0 4 -38 3 -87 -3z"/>
<path d="M5248 1032 c-83 -55 -135 -200 -92 -260 22 -32 49 -27 97 18 l43 39
-4 -30 c-8 -56 47 -62 101 -11 30 28 38 55 9 29 -41 -38 -42 -14 -2 113 38
121 38 124 -2 116 -18 -3 -36 -12 -40 -19 -6 -9 -11 -8 -19 6 -13 22 -56 22
-91 -1z m83 -23 c15 -60 -65 -216 -100 -195 -26 17 6 144 51 201 24 30 39 29
49 -6z"/>
<path d="M5832 1038 c-42 -9 -43 -9 -21 -27 25 -20 38 -81 38 -188 1 -40 4
-73 7 -73 13 0 140 125 166 164 34 49 45 100 28 121 -16 19 -44 19 -60 0 -11
-13 -9 -22 6 -50 18 -34 18 -36 0 -69 -10 -19 -29 -44 -41 -56 l-23 -21 -6 58
c-10 89 -27 153 -39 152 -7 -1 -31 -5 -55 -11z"/>
<path d="M6184 1031 c-16 -10 -45 -42 -64 -71 -59 -93 -52 -210 13 -210 11 0
39 19 61 43 l41 43 -3 -34 c-5 -40 11 -55 48 -46 29 6 57 30 72 59 11 19 10
19 -9 3 -42 -38 -43 -18 -3 117 16 55 30 103 30 108 0 13 -45 8 -67 -8 -19
-13 -22 -13 -27 0 -8 21 -55 19 -92 -4z m84 -44 c5 -73 -64 -193 -99 -171 -36
22 45 234 85 221 6 -2 12 -25 14 -50z"/>
<path d="M6473 1043 c-34 -4 -43 -17 -19 -26 17 -7 15 -16 -25 -145 -16 -51
-29 -97 -29 -102 0 -6 17 -10 38 -10 37 0 39 2 52 43 19 65 46 112 90 158 56
59 65 43 34 -56 -13 -44 -23 -93 -22 -110 3 -26 8 -30 34 -33 24 -2 39 4 63
28 37 37 42 64 6 30 -18 -17 -25 -20 -25 -8 0 8 11 48 25 88 36 106 33 150
-12 150 -37 0 -77 -25 -113 -70 -35 -44 -46 -47 -32 -9 5 13 12 36 16 52 7 29
3 30 -81 20z"/>
<path d="M6890 1039 c-83 -33 -146 -160 -116 -233 26 -62 102 -71 178 -21 51
34 48 50 -3 23 -38 -20 -44 -20 -68 -7 -22 13 -26 22 -29 69 -5 89 61 187 112
167 16 -6 16 -8 0 -32 -15 -24 -16 -28 -2 -42 38 -38 89 27 53 67 -20 22 -81
26 -125 9z"/>
<path d="M7185 1036 c-70 -31 -135 -126 -134 -196 0 -92 105 -117 199 -49 52
38 47 47 -9 18 -49 -25 -87 -20 -103 16 -16 36 -5 49 52 64 88 23 155 104 120
146 -16 19 -84 19 -125 1z m65 -21 c0 -51 -58 -121 -94 -113 -13 3 -12 9 5 48
11 24 27 53 36 62 20 22 53 24 53 3z"/>
<path d="M7873 1037 l-42 -10 22 -17 c20 -17 22 -27 22 -139 0 -67 2 -121 5
-121 3 1 34 43 70 94 73 106 72 106 85 -27 4 -37 11 -67 16 -65 29 10 154 149
176 196 30 64 22 102 -22 102 -34 0 -42 -25 -20 -66 14 -26 16 -39 8 -57 -13
-28 -62 -87 -73 -87 -4 0 -11 26 -14 58 -16 134 -19 152 -26 152 -4 0 -31 -34
-59 -75 -28 -41 -56 -77 -61 -80 -6 -4 -10 17 -10 52 0 69 -8 103 -24 102 -6
-1 -30 -6 -53 -12z"/>
<path d="M8367 1032 c-86 -57 -137 -212 -87 -262 29 -29 49 -25 94 23 l41 43
-3 -34 c-7 -59 46 -66 101 -14 31 29 38 55 7 27 -11 -10 -23 -15 -27 -12 -3 4
8 58 25 120 18 63 32 117 32 122 0 12 -63 -4 -72 -18 -6 -9 -11 -8 -19 6 -13
22 -57 22 -92 -1z m85 -16 c25 -55 -62 -225 -103 -200 -34 20 40 224 82 224 5
0 14 -11 21 -24z"/>
<path d="M8621 1036 l-33 -12 23 -16 c23 -15 24 -20 27 -166 4 -145 3 -151
-17 -162 -18 -9 -26 -7 -47 9 -32 25 -64 13 -64 -23 0 -53 53 -58 110 -9 40
33 122 137 180 227 35 55 44 77 44 115 1 43 -1 46 -26 49 -39 5 -54 -28 -28
-61 11 -14 20 -31 20 -39 0 -7 -19 -42 -42 -78 l-42 -65 -7 45 c-4 25 -8 66
-8 91 -1 61 -19 109 -39 108 -10 0 -32 -6 -51 -13z"/>
<path d="M9145 1027 c-22 -12 -55 -44 -72 -71 -56 -83 -42 -186 27 -201 37 -8
94 9 139 43 40 30 81 113 81 165 0 81 -88 113 -175 64z m94 -9 c15 -42 -25
-185 -66 -230 -9 -10 -24 -18 -34 -18 -37 0 -36 64 2 166 35 92 80 130 98 82z"/>
<path d="M9788 1038 l-38 -10 21 -26 c18 -23 20 -39 18 -134 -1 -60 1 -111 3
-113 3 -3 33 36 67 85 34 50 66 90 70 90 5 0 12 -40 15 -90 4 -49 11 -90 16
-90 5 0 43 33 84 73 96 93 138 181 104 215 -17 17 -43 15 -58 -3 -11 -13 -10
-22 5 -49 16 -29 17 -38 6 -64 -12 -30 -67 -89 -75 -81 -2 2 -9 48 -14 103
-10 91 -16 116 -26 105 -2 -2 -28 -39 -58 -81 l-55 -77 -7 64 c-10 102 -10
101 -78 83z"/>
<path d="M10295 1034 c-71 -37 -118 -110 -119 -186 -2 -90 68 -120 164 -71 67
34 111 98 118 172 4 43 1 53 -21 75 -31 31 -94 35 -142 10z m79 -64 c-1 -50
-8 -79 -30 -124 -31 -65 -51 -83 -79 -72 -26 10 -14 101 25 184 32 70 45 84
70 79 12 -2 15 -17 14 -67z"/>
<path d="M10560 1041 c-31 -6 -33 -7 -16 -17 19 -11 18 -16 -16 -138 l-35
-126 38 0 c37 0 39 2 53 48 17 58 49 131 68 156 13 16 17 17 37 5 20 -12 24
-12 37 6 20 26 14 69 -9 73 -25 5 -60 -29 -82 -79 -23 -51 -30 -44 -10 11 26
73 22 77 -65 61z"/>
<path d="M11130 1041 c-32 -6 -33 -7 -15 -18 19 -11 19 -13 -13 -117 -17 -58
-32 -112 -32 -120 0 -22 35 -38 65 -30 26 7 75 57 74 77 0 7 -7 2 -16 -10 -8
-13 -21 -23 -29 -23 -13 0 -6 32 44 188 l20 62 -32 -1 c-17 -1 -47 -4 -66 -8z"/>
<path d="M11323 1043 c-36 -5 -40 -10 -19 -27 13 -9 10 -28 -19 -126 -19 -63
-34 -118 -35 -122 0 -5 18 -8 39 -8 39 0 40 1 55 54 20 67 98 176 126 176 25
0 25 2 -9 -105 -33 -101 -29 -125 19 -125 29 0 90 50 90 73 -1 7 -10 1 -21
-12 -32 -39 -35 -15 -6 72 38 116 35 157 -10 157 -39 0 -79 -27 -118 -78 -34
-43 -36 -44 -29 -17 4 17 11 40 15 53 17 44 13 46 -78 35z"/>
<path d="M11710 1043 c-8 -3 -27 -17 -42 -31 -38 -35 -39 -93 -2 -127 18 -17
22 -25 12 -25 -19 0 -58 -42 -58 -62 0 -9 7 -21 15 -28 13 -11 10 -15 -23 -30
-106 -48 -22 -131 117 -117 86 9 133 58 117 121 -7 28 -40 48 -113 66 -77 19
-65 50 20 50 26 0 62 7 78 16 34 17 63 75 54 104 -4 14 0 19 16 22 42 6 31 26
-18 32 -84 12 -158 15 -173 9z m98 -37 c5 -39 -25 -114 -51 -127 -17 -9 -23
-8 -34 7 -16 21 -16 29 -3 73 15 53 38 83 63 79 16 -2 23 -11 25 -32z m-33
-296 c36 -30 -5 -70 -71 -70 -55 0 -90 27 -81 62 9 36 43 48 95 32 24 -7 49
-18 57 -24z"/>
</g>
</svg>
